<svg data-v-fde0c5aa="" xmlns="http://www.w3.org/2000/svg" viewBox="0 0 300 300" class="iconLeft"><!----><defs data-v-fde0c5aa=""><!----></defs><rect data-v-fde0c5aa="" fill="#732924" x="0" y="0" width="300px" height="300px" class="logo-background-square"></rect><defs data-v-fde0c5aa=""><!----></defs><g data-v-fde0c5aa="" id="63304776-5012-41c0-83af-8bc307e0fb41" fill="#ffffff" transform="matrix(3.0327035289519704,0,0,3.0327035289519704,89.65305018463681,109.11915637188321)"><path d="M4.90 11.66Q4.73 11.58 4.48 11.58L4.48 11.58Q3.85 11.58 3.22 11.83Q2.59 12.08 2.59 12.47L2.59 12.47Q2.59 12.75 2.84 12.92Q3.09 13.09 3.64 13.30L3.64 13.30Q4.23 13.54 4.59 13.75Q4.96 13.96 5.23 14.36Q5.50 14.76 5.50 15.37L5.50 15.37Q5.50 16.38 4.67 16.92Q3.84 17.46 2.44 17.46L2.44 17.46Q1.75 17.46 1.16 17.25Q0.57 17.04 0.23 16.71Q-0.11 16.38-0.14 16.06L-0.14 16.06Q-0.14 15.72 0.15 15.51Q0.45 15.29 0.98 15.22L0.98 15.22Q0.99 15.50 1.27 15.74Q1.55 15.99 1.94 16.14Q2.32 16.28 2.60 16.28L2.60 16.28Q3.08 16.28 3.47 16.02Q3.86 15.76 3.86 15.41L3.86 15.41Q3.86 14.77 2.62 14.39L2.62 14.39Q1.82 14.15 1.39 13.64Q0.97 13.12 0.97 12.54L0.97 12.54Q0.97 11.41 2.00 10.91Q3.02 10.42 4.62 10.42L4.62 10.42Q5.52 10.42 6.01 10.63Q6.50 10.84 6.50 11.35L6.50 11.35Q6.50 11.70 6.24 11.97Q5.98 12.24 5.50 12.24L5.50 12.24Q5.08 12.24 4.96 12.17Q4.84 12.11 4.83 11.96L4.83 11.96Q4.83 11.82 4.90 11.66L4.90 11.66ZM13.69 10.81Q13.75 10.89 13.84 11.12Q13.93 11.35 13.93 11.48L13.93 11.48Q13.93 11.55 13.92 11.56L13.92 11.56Q13.85 11.65 13.59 11.70Q13.34 11.76 13.26 11.77L13.26 11.77Q12.82 12.05 11.88 12.66Q10.93 13.27 10.50 13.55L10.50 13.55Q10.53 13.89 11.00 14.58Q11.48 15.27 12.03 15.89Q12.57 16.51 12.68 16.51L12.68 16.51Q12.81 16.51 13.00 16.72Q13.19 16.93 13.19 17.09L13.19 17.09Q13.19 17.25 12.99 17.29L12.99 17.29Q12.87 17.32 12.52 17.39Q12.18 17.46 11.93 17.46L11.93 17.46Q11.70 17.46 11.58 17.40L11.58 17.40Q11.26 17.29 10.70 16.65Q10.15 16.02 9.65 15.23Q9.14 14.43 8.99 13.86L8.99 13.86Q8.54 15.67 8.36 16.33Q8.18 17.00 8.06 17.20Q7.95 17.40 7.80 17.40L7.80 17.40L7.41 17.42Q6.48 17.42 6.44 16.67L6.44 16.67Q6.72 15.99 6.83 15.54L6.83 15.54Q8.22 10.40 8.81 7.80L8.81 7.80Q8.79 7.59 8.78 7.22Q8.76 6.85 8.76 6.64L8.76 6.64Q8.81 6.45 9.08 6.34Q9.35 6.23 9.58 6.23L9.58 6.23Q9.93 6.23 10.32 6.47Q10.71 6.71 10.72 7.04L10.72 7.04L9.48 11.93L9.24 12.89Q9.53 12.53 10.24 12.00Q10.95 11.47 11.70 11.05Q12.45 10.63 12.89 10.54L12.89 10.54Q13.01 10.54 13.31 10.61Q13.61 10.68 13.69 10.81L13.69 10.81ZM18.07 16.49Q17.60 16.94 17.15 17.16Q16.70 17.37 16.14 17.37L16.14 17.37Q15.22 17.37 14.72 16.80Q14.22 16.23 14.22 15.27L14.22 15.27Q14.22 14.99 14.31 14.66L14.31 14.66L15.25 11.00Q15.33 10.70 15.55 10.55Q15.76 10.40 16.25 10.40L16.25 10.40Q16.98 10.40 16.98 10.81L16.98 10.81Q16.98 10.98 16.88 11.34L16.88 11.34L15.95 15.09Q15.90 15.26 15.90 15.43L15.90 15.43Q15.90 15.72 16.06 15.90Q16.21 16.09 16.55 16.09L16.55 16.09Q16.98 16.09 17.49 15.83Q17.99 15.58 18.34 15.22L18.34 15.22L18.61 14.11Q18.87 12.99 19.22 11.69L19.22 11.69Q19.38 11.13 19.62 10.77Q19.87 10.42 20.40 10.42L20.40 10.42Q21.14 10.42 21.14 10.86L21.14 10.86Q21.14 10.93 21.11 11.04Q21.07 11.14 21.06 11.21L21.06 11.21L20.59 13.13Q19.87 16.18 19.64 17.04L19.64 17.04Q19.28 18.44 18.82 19.24Q18.35 20.03 17.66 20.38Q16.97 20.73 15.89 20.73L15.89 20.73Q15.20 20.73 14.76 20.54Q14.32 20.34 14.12 20.06Q13.92 19.78 13.92 19.54L13.92 19.54Q13.92 18.86 14.67 18.86L14.67 18.86Q14.88 18.86 15.02 18.94Q15.15 19.03 15.29 19.18L15.29 19.18Q15.50 19.38 15.67 19.47Q15.85 19.57 16.16 19.57L16.16 19.57Q16.39 19.57 16.69 19.38Q16.98 19.18 17.26 18.76Q17.54 18.34 17.72 17.71L17.72 17.71L18.07 16.49ZM25.38 7.04L24.79 9.46Q23.21 16.11 22.93 17.07L22.93 17.07Q22.90 17.15 22.64 17.28Q22.39 17.42 22.29 17.42L22.29 17.42Q21.90 17.42 21.53 17.22Q21.17 17.02 21.14 16.59L21.14 16.59Q21.15 16.56 21.28 16.30Q21.41 16.03 21.53 15.54L21.53 15.54Q21.85 14.34 22.27 12.68Q22.68 11.03 22.82 10.47L22.82 10.47L23.48 7.80Q23.46 7.69 23.46 6.64L23.46 6.64Q23.51 6.45 23.78 6.34Q24.05 6.23 24.28 6.23L24.28 6.23Q24.63 6.23 25.00 6.47Q25.37 6.71 25.38 7.04L25.38 7.04ZM27.02 8.76Q27.02 8.33 27.29 7.99Q27.57 7.66 28.06 7.66L28.06 7.66Q28.57 7.66 28.96 7.98Q29.34 8.30 29.34 8.71L29.34 8.71Q29.34 9.11 28.95 9.41Q28.56 9.70 28.04 9.70L28.04 9.70Q27.54 9.70 27.28 9.44Q27.02 9.18 27.02 8.76L27.02 8.76ZM28.49 11.24Q27.75 14.27 27.36 15.79L27.36 15.79Q27.30 16.02 27.30 16.28L27.30 16.28L27.31 16.67Q27.31 16.91 27.17 17.01Q27.02 17.11 26.54 17.12L26.54 17.12Q26.08 17.12 25.84 17.02Q25.61 16.93 25.61 16.60L25.61 16.60Q25.61 16.45 25.96 14.97Q26.32 13.48 26.94 11.10L26.94 11.10L26.61 10.68Q26.57 10.64 26.57 10.58L26.57 10.58Q26.57 10.44 26.88 10.35Q27.19 10.26 27.73 10.26L27.73 10.26Q28.21 10.26 28.34 10.54Q28.48 10.81 28.49 11.24L28.49 11.24ZM30.16 10.68Q30.11 10.64 30.11 10.58L30.11 10.58Q30.11 10.44 30.42 10.35Q30.73 10.26 31.28 10.26L31.28 10.26Q31.78 10.26 32.02 10.52Q32.26 10.78 32.30 11.14L32.30 11.14L32.05 12.05Q32.34 11.65 32.87 11.28Q33.40 10.91 33.95 10.68Q34.50 10.46 34.85 10.46L34.85 10.46Q35.59 10.46 35.92 10.73Q36.26 11.00 36.26 11.59L36.26 11.59Q35.43 13.75 35.17 16.24L35.17 16.24L35.36 16.93Q35.20 17.25 34.90 17.44Q34.59 17.63 34.02 17.63L34.02 17.63Q33.68 17.63 33.53 17.40Q33.38 17.18 33.38 16.84L33.38 16.84Q33.38 15.90 33.65 14.78Q33.92 13.65 34.29 12.47L34.29 12.47Q34.43 12.03 34.43 12.01L34.43 12.01Q34.43 11.82 34.20 11.82L34.20 11.82Q33.89 11.82 33.27 12.25Q32.65 12.68 31.99 13.71Q31.33 14.74 30.93 16.41L30.93 16.41Q30.90 16.49 30.86 16.72Q30.81 16.94 30.63 17.03Q30.45 17.12 30.04 17.12L30.04 17.12Q29.58 17.12 29.37 17.02Q29.15 16.93 29.15 16.60L29.15 16.60Q29.19 16.41 29.27 16.13L29.27 16.13Q30.09 12.87 30.52 11.10L30.52 11.10L30.16 10.68ZM39.37 17.37Q38.00 17.37 37.37 16.83Q36.74 16.28 36.74 15.37L36.74 15.37Q36.74 14.04 37.40 12.91Q38.07 11.77 39.18 11.11Q40.29 10.44 41.58 10.44L41.58 10.44Q42.36 10.44 42.90 10.89Q43.43 11.33 43.43 12.18L43.43 12.18Q43.43 12.67 43.11 12.99Q42.80 13.30 42.21 13.55Q41.62 13.79 40.31 14.24L40.31 14.24Q39.12 14.63 38.37 14.90L38.37 14.90Q38.32 15.11 38.32 15.33L38.32 15.33Q38.32 15.72 38.65 15.93Q38.98 16.14 39.58 16.14L39.58 16.14Q39.96 16.14 40.45 15.99Q40.94 15.83 41.06 15.60L41.06 15.60Q41.54 14.73 41.93 14.73L41.93 14.73Q42.50 14.73 42.71 14.95Q42.91 15.16 42.92 15.43L42.92 15.43Q42.76 15.88 42.27 16.33Q41.78 16.79 41.02 17.08Q40.26 17.37 39.37 17.37L39.37 17.37ZM38.77 13.61Q40.15 13.16 41.05 12.78Q41.94 12.39 41.94 12.01L41.94 12.01Q41.94 11.84 41.76 11.74Q41.58 11.63 41.37 11.63L41.37 11.63Q40.95 11.63 40.41 11.96Q39.87 12.28 39.41 12.74Q38.95 13.20 38.77 13.61L38.77 13.61ZM45.64 16.55Q45.63 16.63 45.58 16.88Q45.53 17.12 45.34 17.22Q45.15 17.32 44.74 17.32L44.74 17.32Q44.28 17.32 44.07 17.22Q43.86 17.12 43.86 16.80L43.86 16.80L44.53 14.13Q45.09 11.82 45.28 11.19L45.28 11.19L44.93 10.77Q44.88 10.72 44.88 10.67L44.88 10.67Q44.88 10.53 45.19 10.44Q45.50 10.35 46.05 10.35L46.05 10.35Q46.54 10.35 46.70 10.62Q46.87 10.89 46.91 11.33L46.91 11.33L46.82 11.69Q47.26 11.14 47.86 10.79Q48.45 10.43 48.92 10.43L48.92 10.43Q49.52 10.43 49.85 10.64Q50.19 10.85 50.19 11.19L50.19 11.19Q50.19 11.48 49.99 11.80Q49.78 12.11 49.48 12.33Q49.17 12.54 48.87 12.57L48.87 12.57Q48.59 12.57 48.50 12.50Q48.40 12.43 48.40 12.29L48.40 12.29L48.48 11.83Q47.36 12.14 46.45 13.31L46.45 13.31L45.64 16.55ZM55.10 16.35Q55.13 16.72 55.20 17.01L55.20 17.01Q55.17 17.09 54.96 17.18Q54.74 17.26 54.59 17.26L54.59 17.26Q54.08 17.26 53.87 17.12Q53.65 16.97 53.65 16.67L53.65 16.67Q53.65 16.39 53.70 16.11L53.70 16.11Q53.40 16.53 52.80 16.81Q52.21 17.08 51.84 17.08L51.84 17.08Q50.90 17.08 50.28 16.53Q49.66 15.99 49.66 14.78L49.66 14.78Q49.66 13.65 50.20 12.65Q50.74 11.65 51.69 11.04Q52.64 10.43 53.80 10.43L53.80 10.43Q54.03 10.43 54.39 10.55Q54.75 10.67 55.13 10.96Q55.50 11.24 55.75 11.69L55.75 11.69Q55.86 11.69 56.01 11.80Q56.17 11.91 56.17 12.03L56.17 12.03Q56.17 12.15 56.13 12.28L56.13 12.28L55.10 16.35ZM54.47 12.43Q54.39 12.12 54.15 11.91Q53.90 11.70 53.70 11.70L53.70 11.70Q53.06 11.70 52.49 12.16Q51.93 12.61 51.58 13.29Q51.23 13.96 51.23 14.56L51.23 14.56Q51.23 15.15 51.37 15.53Q51.51 15.90 51.91 15.90L51.91 15.90Q52.26 15.90 52.72 15.69Q53.17 15.48 53.53 15.13Q53.89 14.77 54.00 14.38L54.00 14.38L54.47 12.43Z"></path></g><defs data-v-fde0c5aa=""><!----></defs><g data-v-fde0c5aa="" id="3857c912-dcd8-470a-a73b-046b718537f5" stroke="none" fill="#E3A489" transform="matrix(0.689171322778302,0,0,0.689171322778302,39.998739137103136,116.81460512864831)"><path d="M29.12 61.42l.64.13a4.38 4.38 0 001.11.14h.4a.55.55 0 00.53-.57.55.55 0 00-.57-.53 3.69 3.69 0 01-1.22-.1l-.67-.14a1.52 1.52 0 01-1.07-.76c-1-1.57-.22-5.11.15-6.34a.554.554 0 00-1.06-.32c-.06.2-1.45 4.92 0 7.24a2.61 2.61 0 001.76 1.25z"></path><path d="M39.48 20.74a12.23 12.23 0 00-2.84-1.18 10 10 0 003.63-2.14c.93 4.37 4.05 5.09 4.2 5.12h.12a.55.55 0 00.51-.76l-1-2.47c-.92-2.32-.6-7.62-.59-7.67a.54.54 0 00-.09-.32 10 10 0 10-19.87.22c-.17 2.14-.61 2.35-.62 2.35s-.25-.12-.4-.29l-.2-.76c-.18-.72-.37-1.46-.57-2a3.51 3.51 0 00-2.16-2.15 4.73 4.73 0 00-4.13.85c-1.1.71-1.63 1.45-1.58 2.22a1.39 1.39 0 000 .18l-.86.62a.555.555 0 10.65.9l.82-.59a2 2 0 00.33.21 2 2 0 001.92-.08 2.66 2.66 0 01.72-.37 4.69 4.69 0 00-.59 3.18 2.19 2.19 0 001.28 1.41 14.39 14.39 0 012.56 1.33l.08.06a2.51 2.51 0 00.26.2 2.78 2.78 0 001.54.41 5.48 5.48 0 001.31-.18 3.19 3.19 0 002.19-1.51 2.44 2.44 0 00.19-.49 10 10 0 004.34 2.6 8.2 8.2 0 00-1.57.68 7 7 0 00-3.65 3.73.54.54 0 00-.06.15 8 8 0 00-.55 3.3 5.92 5.92 0 01-1.68 1c-1.43.7-3.38 1.66-2.73 3.89.22.74.55 1.6 1.22 1.68h.1a.91.91 0 00.76-.47v-.08a2.11 2.11 0 01.35-.56 6.12 6.12 0 002.45 1.9 16 16 0 001.63 4c.11.19.2.37.3.54a7.41 7.41 0 00.56.95v.75a15.06 15.06 0 00-4.25 2.57 5 5 0 00-3.79 1.92c-.9 1.34-.86 3.22.11 5.59l.19 2.29a10.59 10.59 0 00-.14 3.44c.29 2.4 1.13 3.6 1.82 4.19a35.67 35.67 0 00.48 6.6 35.15 35.15 0 00-7.21 2.3 14.33 14.33 0 01-3.47 1.18 2.71 2.71 0 00.19-2.59 2 2 0 00-1.48-.87L7.5 25c0-.32-.1-2.63-1.37-3.59a2 2 0 00-.69-.33c.53-.72 1-1.27 1.08-1.41A1.6 1.6 0 007.04 18a2 2 0 00-1.61-1.29.55.55 0 00-.31 0C2.48 18 .83 22.32.27 24.69c-.5 2.09-.17 2.5-.05 2.65a.83.83 0 00.66.33h.09c.75-.08 1.49-1.3 2-2.31v-.08a7.89 7.89 0 01.69-1.49.54.54 0 00.16-.05.59.59 0 01.52 0c.14.08.6.5.6 2.43l2.52 44a3.83 3.83 0 00-1.62.83 2.46 2.46 0 00-.85 1.86v.86c-.06 1.32-.14 3 1.32 3.39l.25.08a7.69 7.69 0 001.55.36.53.53 0 000 .12l1.16 16.54a.55.55 0 00.55.51h1.49a.55.55 0 00.55-.59l-1.08-17a9.49 9.49 0 014.17-.85c1.76.17 7.48 0 9.48-.91l.69 1.89a16.44 16.44 0 00-3.74 1.87.55.55 0 00-.21.32 12.08 12.08 0 00-.36 2.95 6.21 6.21 0 001 5.69l-1.73-.53a.55.55 0 00-.72.53V91a.55.55 0 00.78.5l.24-.11-.53 2.68a.55.55 0 00.44.65h.11a.55.55 0 00.54-.45l.66-3.35a.52.52 0 000-.11l.84-.38-.45 4.22a.55.55 0 00.55.61h2.59a.55.55 0 00.55-.64l-.67-4.12 2.47.72a.55.55 0 00.71-.53v-2.61a.55.55 0 00-.72-.53l-1.68.51a5.48 5.48 0 001.32-3.27l1.16.21c.44 1.3 3.17 8.42 10.17 11a.56.56 0 00.19 0 .55.55 0 00.19-1.07c-5.77-2.09-8.49-7.74-9.29-9.74a51.62 51.62 0 006.88.49 32.49 32.49 0 008.27-1l1.48 10.1a.55.55 0 00.55.47h.08a.55.55 0 00.47-.63L45.1 79.71a4.6 4.6 0 003.17-4.29 15.33 15.33 0 01.12-1.59c.07-.57.29-1.59.54-2.76.71-3.36 1.79-8.43 1.44-11.81 0-.2 0-.35-.05-.47a4.94 4.94 0 010-.65.54.54 0 000-.34v-1.33h1.7a.55.55 0 00.55-.55c-.03-1.15-.18-27.86-13.09-35.18zm3.57-1l.46 1.15a6.19 6.19 0 01-2.32-4.46 10.08 10.08 0 001.14-1.72 16.26 16.26 0 00.72 5.03zm-25.11-4.2a3.94 3.94 0 01.59-2.54 4.12 4.12 0 01.59 1.6 16.82 16.82 0 00.51 2.08l-1-.47a1.08 1.08 0 01-.69-.66zm7.17 1.51a2.15 2.15 0 01-1.48 1 2.52 2.52 0 01-2-.09c-.73-.47-1.11-1.73-1.45-3.49a3.64 3.64 0 00-1.51-2.69l-.15-.08a2.52 2.52 0 00-2.41.5.89.89 0 01-.8 0c-.1 0-.33-.18-.35-.39s.26-.69 1.07-1.22a3.8 3.8 0 013.18-.73 2.41 2.41 0 011.47 1.49c.18.49.36 1.2.54 1.89l.23.88c.38 1.39.68 2.16 1.25 2.33a.8.8 0 00.78-.19.552.552 0 00-.47-1l-.09-.2a1.1 1.1 0 00.28 0 1.6 1.6 0 001-1.06 10 10 0 001 1.86 1.77 1.77 0 01-.08 1.19zm-.62-7A8.94 8.94 0 1133.44 19a8.95 8.95 0 01-8.94-9zm5 11.31h.06a9.53 9.53 0 019.32.38c9.19 5.21 11.63 21.44 12.27 29.53h-1.32v-.19a7.57 7.57 0 00-3.09-4.9A11.93 11.93 0 0044.56 45a6.84 6.84 0 00-2.52-.61c-3.8 0-5.56 5-6.3 8.14-1-.12-3-.4-3.68-.5a82 82 0 011.42-8.08v-.06c.74-3.08 1.72-5.88 3-7a8.26 8.26 0 00.63-.65 5.87 5.87 0 001.4-4.47.54.54 0 00.08-.29l-.17-5.29a.55.55 0 00-.23-.43c-.25-.18-5.6-4-11-2.39a6.1 6.1 0 012.36-2.02zm11 37.33a18.78 18.78 0 004.55.57 15.66 15.66 0 004.15-.54v.65a14.65 14.65 0 010 2c-3.53 2.08-7.75.53-8.88 0 .12-1 .15-1.91.18-2.68zm-18.16-7.74l2.67.5c-.1.73-.18 1.39-.23 1.91L21.91 53c.15-.6.28-1.31.42-2.05zm6.59-9.7l4.23-.34c-.25.79-.49 1.63-.7 2.49a5.44 5.44 0 01-3.78.29 9.69 9.69 0 00.25-2.45zm-1.21 4.11a2.06 2.06 0 00.56-.63 8 8 0 002 .27 6 6 0 001.83-.27q-.15.68-.28 1.35a9.19 9.19 0 01-4.58 0 1.71 1.71 0 01.47-.73zm-.75 1.78a14.5 14.5 0 003 .35 7.51 7.51 0 001.7-.18c-.17.93-.31 1.84-.44 2.69a5.68 5.68 0 01-4.73-.6c.12-.86.29-1.63.46-2.27zm4.95 6c.71.1 2.53.36 3.58.49-.11.55-.17 1-.21 1.24-1.09.77-2.83.23-3.56-.06.03-.41.09-.99.18-1.73zm11.52-7.37a30.67 30.67 0 01-5.5 3.51c.88-2 2.18-3.76 4.1-3.76a4.75 4.75 0 011.39.19zm-17.11-21c4.68-2.17 9.86.92 11 1.66l.08 2.41a5.72 5.72 0 00-1.56-1.45 12.92 12.92 0 00-5.75-1.86 7.1 7.1 0 00-4.13.79 6.91 6.91 0 01.36-1.55zm-4.64 8a4.84 4.84 0 01-.23-.64c-.35-1.2.43-1.73 2.16-2.58.32-.16.62-.31.91-.48h.07a1.85 1.85 0 011.63.79A11.64 11.64 0 0027.27 31l-1.62.1c-.73 0-.9.05-1.76.16a3 3 0 00-2.21 1.54zm2.14-.35H24l.76-.09c0 .08.06.51.19 1.15a7 7 0 01-1.13-1.02zm2-.21l2.76-.19a.54.54 0 00.17 0 .55.55 0 00.18-.15.53.53 0 000-.07.37.37 0 00.07-.22.52.52 0 000-.08.55.55 0 000-.11.56.56 0 000-.1v-.06a.54.54 0 00-.09-.1 10.58 10.58 0 01-1.82-1.84 3.08 3.08 0 00-1.39-1 .55.55 0 00.11-.39c.27-.28 1.45-1.32 4.14-1.13a11.78 11.78 0 015.32 1.55 4.65 4.65 0 012.13 3.27 4.77 4.77 0 01-1.13 3.84 7.12 7.12 0 01-.54.56 10 10 0 00-2.17 3.8h-.14l-4.42.35a4.87 4.87 0 01-.79-1.2c-.1-.2-.21-.39-.33-.6a17.81 17.81 0 01-2.01-6.09zm1.19 12.21a3.82 3.82 0 00-1 1.82v.05a28.44 28.44 0 00-.87 4l-2.64-.49c.37-2.11.82-4.37 1.65-5.21a12.81 12.81 0 013.61-2.29 3.14 3.14 0 01-.7 2.15zm-6.34 1.82a3.32 3.32 0 012-1.27 22.25 22.25 0 00-1.3 5.15c-.07.38-.13.75-.2 1.11H21v-.25a.56.56 0 000-.17c-.93-1.98-1.01-3.53-.33-4.57zm.34 10.57a9.49 9.49 0 01.08-2.81l4.05.47h.13a.55.55 0 00.55-.5c.11-1.15.27-2.35.45-3.49a7.41 7.41 0 003.32.87 5.46 5.46 0 001.43-.2c-.29 2.12-.43 3.65-.44 3.85a.55.55 0 00.31.55c.14.07 3.37 1.62 5.28-.08a.55.55 0 00.18-.35 26.18 26.18 0 011-4.4c1.35-.68 5.81-3 7.16-4.63a11.12 11.12 0 011.56.9 6.45 6.45 0 012.63 4.18 31.36 31.36 0 01.5 4.68v1.66a16.69 16.69 0 01-8.6 0c.06-.77.11-1.24.11-1.25a14.36 14.36 0 000-2.39.551.551 0 00-1.1.08 13.45 13.45 0 010 2.17A43 43 0 0039.79 67c.28 1.12.84 4.33.06 5.64-.37.63-3.85 1.52-6.65 2.24l-.57.15a27.58 27.58 0 012.51-4.78c1.52-2 1.07-3.42 1-3.58a.55.55 0 00-.7-.32.56.56 0 00-.34.7s.3 1-.85 2.54a14.8 14.8 0 00-1.12 1.82c-1.2.92-3.75.29-4.81-.1a5.88 5.88 0 01-.58-3.48 5 5 0 002.66.77 6.59 6.59 0 003.7-1.27.555.555 0 00-.62-.92c-3.08 2.08-5.1.61-5.58.19a17.6 17.6 0 010-3.85.554.554 0 10-1.1-.13 18.69 18.69 0 000 4.08c-.63.48-2-.06-2.46-.31a.564.564 0 00-.52 1 5.17 5.17 0 002.29.63 2.78 2.78 0 00.53-.05 7.27 7.27 0 00.57 3.65c-.5.2-2.07.64-2.76.08l-.72-2.55a30.07 30.07 0 01-.82-7.42 3.14 3.14 0 00.55 0 14.73 14.73 0 002.58-.33.552.552 0 10-.23-1.08 9.24 9.24 0 01-2.76.27c-.34-.07-1.65-.65-2.03-3.78zm11.1 22.6a7.49 7.49 0 00-2 .19 3.26 3.26 0 00-.71-2.57l2.15-.59a3 3 0 01.57 2.98zm-19.37-4.06a13.17 13.17 0 00-2 .6 5.92 5.92 0 00.37-2 7 7 0 000-1.56 6.43 6.43 0 001.16-.2 4.77 4.77 0 01.47 3.16zm-2-6.15c.09.15.2.57-.23 1.52l-.12-.12a.51.51 0 000-.08l-.12-1.62a.77.77 0 01.47.3zM1.93 24.9a8.41 8.41 0 01-.82 1.35c.13-1.73 1.75-7 4.31-8.37a.79.79 0 01.56.46.51.51 0 01-.19.5 28 28 0 00-1.87 2.48 16 16 0 00-1.99 3.58zm4.13 1.19c0-1.82-.39-2.92-1.17-3.37a1.45 1.45 0 00-.47-.17l.29-.44a1 1 0 01.75.16c.73.55.92 2.17.93 2.74L9.27 70a5.11 5.11 0 00-.64 0zM6.61 76c-.59-.18-.59-1-.53-2.28v-.92a1.36 1.36 0 01.49-1 2.89 2.89 0 011.49-.65 4 4 0 01.61 0h.4a.72.72 0 01.52.28 4 4 0 01.4 2.44 3 3 0 01-.72 2.34c-.62.44-1.62.12-2.36-.11zm3.74 17.6L9.18 77.55a.52.52 0 000-.11 2.25 2.25 0 00.54-.23l1 16.4zm4.73-18.45a6.59 6.59 0 00-1.21 0 6 6 0 00-.52-3.3 22 22 0 002.07-.82 34.72 34.72 0 017-2.23c0 .21.1.41.16.61l1 3.65.45 1.26c-1.11.68-6.64 1.08-8.95.85zM24.77 73a3.6 3.6 0 00.65.07 6.41 6.41 0 002.16-.43.55.55 0 00.3-.29 11 11 0 003.44.65 5.59 5.59 0 001-.09c-.51 1.07-.92 2-1.1 2.49-1.73.46-3.49.95-5.09 1.49zm-2.56 6.91a17.55 17.55 0 013.82-1.79c.69-.25 1.41-.48 2.15-.71a2.24 2.24 0 01.54 2.88 5.26 5.26 0 00-.53.37l-.07.07a3.2 3.2 0 01-2.76.78.55.55 0 00-.6.29.56.56 0 00.12.66 1.89 1.89 0 01.55 1.54c-.23.33-2.26 0-3.27-.57-.14-.09-.22-.42-.24-.9a10.9 10.9 0 01.29-2.62zm2.59 5.28a2.46 2.46 0 001.07-.19l.13-.08a5.47 5.47 0 01-2.23 3.65 5.46 5.46 0 01-2.16-4.2 7.32 7.32 0 003.19.82zm-4.33 4.94v-1.3l1.7.52zm2.69 4l.47-4.38h.15l.7 4.34zM27.08 90l-1.91-.56 1.91-.58zM27 83.67a4.68 4.68 0 00-.35-1 3.56 3.56 0 002.28-1.14 6.1 6.1 0 011.59-.85 8.93 8.93 0 011.75-.16.56.56 0 00.19 0 .55.55 0 00.22-.05h1.59a61.45 61.45 0 009.71-.56l.53 3.65c-6.65 1.86-14.84.59-17.51.09zm20.84-12.84c-.26 1.25-.47 2.24-.55 2.85a16.44 16.44 0 00-.12 1.71 3.51 3.51 0 01-2.8 3.37 55.7 55.7 0 01-10.1.64h-1a4.1 4.1 0 00-.57-3.24l.78-.2c4.42-1.14 6.75-1.78 7.33-2.75 1.15-1.94.18-6 .07-6.43a30.78 30.78 0 01-.41-4.21 13.39 13.39 0 004.74.94 9.26 9.26 0 004-.88 71.86 71.86 0 01-1.37 8.2zm2.43-15.48c0-.92-.14-1.93-.3-3h1.3c.09 1.37.13 2.42.14 3z"></path><path d="M40.7 10a7.26 7.26 0 10-7.26 7.27A7.27 7.27 0 0040.7 10zm-13.43 0a6.16 6.16 0 116.16 6.16A6.16 6.16 0 0127.27 10zM30.92 30.52a1.94 1.94 0 001.87-1.36 1.64 1.64 0 00-.33-1.43 2.51 2.51 0 00-2.08-.65 2.41 2.41 0 00-2.11 1.54.55.55 0 000 .38 2.45 2.45 0 002.36 1.53zm-1.54-1.71a1.26 1.26 0 011-.62 1.63 1.63 0 011.2.27s.14.16.08.51c0 .15-.36.4-.89.45a1.47 1.47 0 01-1.39-.61z"></path></g><!----></svg>