<svg data-v-423bf9ae="" xmlns="http://www.w3.org/2000/svg" viewBox="0 0 259.57174305468703 60" class="font"><!----><!----><defs data-v-423bf9ae=""><linearGradient data-v-423bf9ae="" gradientTransform="rotate(25)" id="a458c3a8-3a4d-44df-964d-00325134a5c0" x1="0%" y1="0%" x2="100%" y2="0%"><stop data-v-423bf9ae="" offset="0%" style="stop-color: rgb(100, 91, 78); stop-opacity: 1;"></stop><stop data-v-423bf9ae="" offset="100%" style="stop-color: rgb(179, 153, 132); stop-opacity: 1;"></stop></linearGradient></defs><g data-v-423bf9ae="" id="33d79896-aede-4adb-829b-d4763b8d7d2a" fill="url(#a458c3a8-3a4d-44df-964d-00325134a5c0)" transform="matrix(3.868471896491106,0,0,3.868471896491106,-2.478518819804094,-11.566731722656769)"><path d="M1.23 11.63L1.23 11.63Q1.39 11.60 1.69 11.60Q1.98 11.60 2.47 11.84L2.47 11.84Q2.47 11.89 2.47 12.04Q2.47 12.20 2.54 12.41Q2.61 12.63 2.76 12.82L2.76 12.82Q3.09 13.23 3.84 13.23Q4.59 13.23 4.83 12.72L4.83 12.72Q5.02 12.26 4.76 11.76L4.76 11.76Q4.56 11.39 3.70 11.05L3.70 11.05Q3.55 11.00 3.30 10.90L3.30 10.90Q1.03 10.09 1.00 8.55L1.00 8.55Q1.00 7.85 1.39 7.38L1.39 7.38Q2.13 6.48 3.89 6.48L3.89 6.48Q5.04 6.48 5.84 6.96Q6.64 7.44 6.64 8.13L6.64 8.13Q6.64 8.91 5.88 8.91L5.88 8.91Q5.34 8.91 5.12 8.79Q4.90 8.67 4.90 8.66L4.90 8.66Q4.90 8.62 4.90 8.59L4.90 8.59Q4.90 7.31 3.66 7.31L3.66 7.31Q3.23 7.31 2.98 7.53Q2.73 7.75 2.73 8.18Q2.73 8.61 3.03 8.89Q3.34 9.17 4.21 9.52Q5.08 9.86 5.33 9.99L5.33 9.99Q6.86 10.73 6.86 11.92L6.86 11.92Q6.86 12.94 6.00 13.49Q5.13 14.04 3.70 14.04L3.70 14.04Q2.75 14.04 2.26 13.88Q1.78 13.71 1.53 13.58Q1.28 13.44 1.12 13.29Q0.96 13.14 0.85 12.97L0.85 12.97Q0.55 12.54 0.68 12.10L0.68 12.10Q0.78 11.72 1.23 11.63ZM15.44 12.72L15.44 12.72Q15.72 12.72 15.98 12.54L15.98 12.54L16.26 13.00Q15.80 13.69 15.07 13.97L15.07 13.97Q14.77 14.08 14.45 14.08Q14.13 14.08 13.83 13.91Q13.52 13.75 13.29 13.49Q13.06 13.23 12.83 12.84Q12.61 12.45 12.46 12.09Q12.31 11.73 12.16 11.27L12.16 11.27Q11.98 10.73 11.74 9.81L11.74 9.81Q11.27 10.54 10.86 11.00L10.86 11.00Q10.86 11.79 10.83 13.80L10.83 13.80Q10.17 13.93 9.64 13.93Q9.12 13.93 8.76 13.79L8.76 13.79Q8.93 12.76 8.93 9.93Q8.93 7.11 8.83 5.08L8.83 5.08Q8.78 4.42 7.96 4.33L7.96 4.33Q7.96 4.29 7.94 4.20L7.94 4.20Q7.92 4.05 7.92 3.98Q7.92 3.90 7.92 3.85L7.92 3.85Q9.20 3.34 10.53 3.34L10.53 3.34Q10.60 3.34 10.66 3.34L10.66 3.34Q10.81 3.53 10.85 4.12Q10.88 4.70 10.88 6.47Q10.88 8.25 10.88 9.74L10.88 9.74Q11.63 8.33 12.22 7.70L12.22 7.70Q12.93 6.95 13.42 6.75Q13.90 6.56 14.29 6.56L14.29 6.56Q14.98 6.56 15.40 6.94Q15.83 7.32 15.83 7.96Q15.83 8.60 15.41 8.98Q14.99 9.36 14.41 9.36L14.41 9.36Q14.29 9.36 14.16 9.34L14.16 9.34Q14.16 8.56 13.86 8.24L13.86 8.24Q13.73 8.09 13.46 8.09Q13.19 8.09 12.92 8.30Q12.65 8.52 12.30 8.98L12.30 8.98Q13.25 10.67 14.11 11.70Q14.97 12.72 15.44 12.72ZM18.29 15.74L18.29 15.74Q18.36 16.02 18.55 16.24Q18.74 16.46 19.01 16.46L19.01 16.46Q19.46 16.46 19.84 15.88Q20.22 15.29 20.49 14.23L20.49 14.23Q20.36 13.84 19.73 12.48Q19.11 11.11 18.26 9.56L18.26 9.56Q17.31 7.84 16.86 7.69L16.86 7.69Q16.76 7.66 16.64 7.65Q16.52 7.64 16.43 7.64Q16.34 7.63 16.31 7.63L16.31 7.63Q16.26 7.29 16.26 7.25Q16.26 7.21 16.27 7.15L16.27 7.15Q17.37 6.54 18.32 6.54L18.32 6.54Q18.72 6.54 19.10 6.69Q19.48 6.85 20.08 8.29Q20.69 9.73 21.45 12.53L21.45 12.53Q22.35 9.51 22.85 7.63L22.85 7.63Q22.99 7.08 23.35 6.80Q23.72 6.52 24.07 6.52L24.07 6.52Q25.08 6.52 25.35 7.31L25.35 7.31Q25.27 7.31 25.03 7.56Q24.79 7.82 24.50 8.26Q24.21 8.70 23.87 9.45Q23.52 10.21 23.23 11.00Q22.94 11.79 22.60 12.69Q22.26 13.59 21.94 14.41Q21.62 15.22 21.23 15.98Q20.84 16.74 20.45 17.29Q20.06 17.84 19.58 18.17Q19.09 18.50 18.64 18.50Q18.18 18.50 17.89 18.38Q17.59 18.25 17.42 18.04L17.42 18.04Q17.11 17.61 17.11 17.11Q17.11 16.60 17.45 16.23Q17.79 15.85 18.29 15.74ZM26.64 5.08L26.64 5.08Q26.52 4.42 25.77 4.33L25.77 4.33Q25.72 3.99 25.72 3.95Q25.72 3.90 25.73 3.85L25.73 3.85Q27.02 3.34 28.35 3.34L28.35 3.34Q28.41 3.34 28.48 3.34L28.48 3.34Q28.62 3.53 28.67 4.20Q28.72 4.87 28.72 7.33Q28.72 9.79 28.64 13.80L28.64 13.80Q28.19 13.93 27.56 13.93Q26.93 13.93 26.58 13.79L26.58 13.79Q26.71 12.87 26.71 10.29Q26.71 7.72 26.64 5.08ZM31.18 3.33L31.18 3.33Q31.58 2.99 32.05 2.99Q32.53 2.99 32.83 3.28Q33.14 3.57 33.14 4.09Q33.14 4.62 32.74 4.98Q32.35 5.34 31.84 5.34Q31.33 5.34 31.04 5.02Q30.75 4.71 30.75 4.22Q30.75 3.73 31.18 3.33ZM30.99 8.33L30.99 8.33Q30.99 7.81 30.63 7.71L30.63 7.71Q30.40 7.64 29.98 7.60L29.98 7.60Q29.93 7.40 29.93 7.29Q29.93 7.18 29.93 7.12L29.93 7.12Q30.92 6.57 32.40 6.57L32.40 6.57Q32.64 6.57 32.76 6.58L32.76 6.58Q32.95 6.88 33.02 7.75L33.02 7.75Q33.08 8.15 33.08 8.95Q33.08 9.75 33.02 13.82L33.02 13.82Q32.27 13.95 31.76 13.95Q31.26 13.95 30.91 13.82L30.91 13.82Q31.04 12.17 31.04 10.87Q31.04 9.56 30.99 8.33ZM40.28 12.32L40.28 12.32L40.35 9.71Q40.35 8.83 40.29 8.59Q40.24 8.36 40.15 8.24L40.15 8.24Q39.96 8.00 39.59 8.00Q39.22 8.00 38.96 8.09L38.96 8.09Q38.42 8.26 37.59 9.08L37.59 9.08Q37.59 9.97 37.55 13.82L37.55 13.82Q36.79 13.95 36.29 13.95Q35.78 13.95 35.43 13.82L35.43 13.82Q35.55 12.15 35.55 10.75Q35.55 9.34 35.52 8.33L35.52 8.33Q35.52 7.81 35.15 7.71L35.15 7.71Q34.92 7.64 34.49 7.60L34.49 7.60Q34.45 7.42 34.45 7.32Q34.45 7.21 34.48 7.12L34.48 7.12Q35.46 6.57 36.93 6.57L36.93 6.57Q37.17 6.57 37.28 6.58L37.28 6.58Q37.55 7.03 37.58 8.15L37.58 8.15Q38.86 6.51 40.57 6.51L40.57 6.51Q41.36 6.51 41.81 7.04Q42.26 7.58 42.32 8.50L42.32 8.50Q42.35 8.91 42.35 9.33Q42.35 9.75 42.31 10.23L42.31 10.23Q42.19 11.71 42.19 12.50L42.19 12.50Q42.19 12.67 42.44 12.77Q42.70 12.87 42.94 12.87Q43.18 12.87 43.27 12.84L43.27 12.84Q43.35 13.02 43.35 13.18Q43.35 13.33 43.34 13.38L43.34 13.38Q42.06 14.05 41.43 14.05Q40.80 14.05 40.54 13.62Q40.28 13.19 40.28 12.32ZM46.62 10.85Q46.83 11.86 47.50 12.48Q48.17 13.10 49.06 13.10Q49.96 13.10 50.87 12.33L50.87 12.33Q51.21 12.56 51.28 12.87L51.28 12.87Q50.65 13.60 49.42 13.91L49.42 13.91Q48.92 14.04 48.27 14.04Q47.62 14.04 46.92 13.81Q46.22 13.57 45.67 13.12Q45.12 12.67 44.80 11.93Q44.48 11.20 44.48 10.30Q44.48 9.41 44.81 8.68Q45.14 7.95 45.68 7.49L45.68 7.49Q46.81 6.51 48.26 6.51L48.26 6.51Q49.54 6.51 50.48 7.20L50.48 7.20Q50.93 7.54 51.20 8.08Q51.47 8.63 51.47 9.31L51.47 9.31Q51.47 10.48 50.70 10.54L50.70 10.54L46.62 10.85ZM49.63 9.11Q49.63 8.29 49.18 7.83Q48.73 7.38 48.00 7.38Q47.26 7.38 46.89 8.06Q46.51 8.75 46.51 9.97L46.51 9.97Q48.21 9.78 49.59 9.58L49.59 9.58Q49.63 9.33 49.63 9.11L49.63 9.11ZM57.39 9.30L57.39 9.21Q57.39 8.05 56.85 8.05L56.85 8.05Q56.46 8.05 56.11 8.27Q55.75 8.49 55.34 8.89L55.34 8.89Q55.34 9.57 55.30 13.82L55.30 13.82Q54.54 13.95 54.06 13.95Q53.58 13.95 53.23 13.82L53.23 13.82Q53.31 12.68 53.31 9.93L53.31 9.93L53.31 8.33Q53.31 7.81 52.95 7.71L52.95 7.71Q52.71 7.64 52.29 7.60L52.29 7.60Q52.24 7.40 52.24 7.29Q52.24 7.18 52.25 7.12L52.25 7.12Q53.23 6.57 54.68 6.57L54.68 6.57Q54.92 6.57 55.04 6.58L55.04 6.58Q55.23 6.92 55.27 7.29Q55.31 7.66 55.33 7.99L55.33 7.99Q56.25 6.88 56.88 6.64L56.88 6.64Q57.18 6.52 57.51 6.52L57.51 6.52Q58.19 6.52 58.61 6.90Q59.02 7.28 59.02 8.01L59.02 8.01Q59.02 8.57 58.61 8.95L58.61 8.95Q58.21 9.32 57.63 9.32L57.63 9.32Q57.51 9.32 57.39 9.30L57.39 9.30ZM66.57 9.94L66.57 9.94L66.53 12.24Q66.53 12.27 66.53 12.30L66.53 12.30Q66.53 12.68 66.88 12.68L66.88 12.68Q67.16 12.68 67.46 12.50L67.46 12.50Q67.56 12.58 67.65 12.73Q67.73 12.88 67.74 12.96L67.74 12.96Q66.90 14.04 65.98 14.04Q65.07 14.04 64.71 13.15L64.71 13.15Q64.08 13.58 63.43 13.81Q62.77 14.04 62.31 14.04Q61.84 14.04 61.44 13.94Q61.04 13.84 60.70 13.61L60.70 13.61Q59.96 13.13 59.96 12.03L59.96 12.03Q59.96 11.44 60.28 11.00Q60.61 10.56 61.17 10.31L61.17 10.31Q62.24 9.82 63.73 9.78L63.73 9.78L64.52 9.75Q64.57 9.20 64.57 8.88L64.57 8.88Q64.57 8.16 64.30 7.79Q64.02 7.42 63.27 7.42L63.27 7.42Q62.82 7.42 62.57 7.73Q62.32 8.05 62.32 8.66L62.32 8.66Q62.32 8.74 62.08 8.86L62.08 8.86Q61.69 9.04 61.31 9.04Q60.92 9.04 60.69 8.83Q60.46 8.61 60.46 8.21Q60.46 7.81 60.75 7.46Q61.04 7.12 61.52 6.92L61.52 6.92Q62.47 6.55 63.68 6.55L63.68 6.55Q64.96 6.55 65.54 6.95L65.54 6.95Q66.08 7.31 66.30 7.97L66.30 7.97Q66.57 8.74 66.57 9.94ZM64.52 12.43L64.52 12.43Q64.44 11.93 64.44 11.56Q64.44 11.20 64.46 10.54L64.46 10.54L63.51 10.58Q62.77 10.58 62.38 10.94Q61.98 11.29 61.98 11.83Q61.98 12.36 62.21 12.59Q62.45 12.82 63.15 12.82Q63.86 12.82 64.52 12.43Z"></path></g><!----><!----></svg>